<svg id="Layer_1" data-name="Layer 1" xmlns="http://www.w3.org/2000/svg" viewBox="0 0 800 800"><defs><style>.cls-1{fill:#231f20;}.cls-2{fill:#f18a00;}.cls-3{fill:#ec008c;}.cls-4{fill:#00aeef;}</style></defs><path class="cls-1" d="M513.61,641.5V497.91h26.6V641.5Z"/><polygon class="cls-1" points="592.69 614.91 592.69 497.91 566.11 497.91 566.11 641.5 642.32 641.5 642.32 614.91 592.69 614.91"/><path class="cls-1" d="M487.55,497.91v99.65c0,29.55-21.16,46.33-51.67,46.33-30.28,0-51.63-16.78-51.63-46.33V497.91H411v97.41c0,15.67,7.87,25.08,24.89,25.08,17.28,0,25.08-9.41,25.08-25.08V497.91Z"/><path class="cls-2" d="M436.23,156.12c-1.43,0-118.09,0-118.09,0A16.13,16.13,0,0,0,302,172.19v10.23c0,8.86-.82,38.47-9.74,47.38-9.23,9.27-23.25,9.75-26,9.75H221.39a16.09,16.09,0,0,0,0,32.18h44.67c3,0,17,.47,26.21,9.73,10,10,9.75,25.58,9.72,26.22V389.9a16.1,16.1,0,0,0,32.2,0V304.15a3.59,3.59,0,0,1,7.18,0V410a16.1,16.1,0,1,0,32.2,0l-.09-111.07a3.59,3.59,0,0,1,3.57-3.62,3.55,3.55,0,0,1,3.61,3.62V403.18a16.1,16.1,0,1,0,32.19,0V293.62a3.62,3.62,0,0,1,7.23,0v77.11a16.09,16.09,0,0,0,32.18,0V172.19A16.08,16.08,0,0,0,436.23,156.12Z"/><path class="cls-3" d="M59.92,489.42c1.43,0,118.1,0,118.1,0a16.15,16.15,0,0,0,16.14-16.08V463.14c0-8.88.81-38.48,9.73-47.4,9.24-9.26,23.25-9.73,26-9.73h44.9a16.1,16.1,0,0,0,0-32.19H230.09c-3,0-17-.46-26.21-9.72-10-10-9.75-25.6-9.72-26.24V255.65a16.1,16.1,0,0,0-32.2,0v85.72a3.6,3.6,0,0,1-7.19,0V235.56a16.11,16.11,0,0,0-27.5-11.35,15.9,15.9,0,0,0-4.7,11.35l.11,111.08a3.6,3.6,0,1,1-7.2,0V242.36a16.1,16.1,0,1,0-32.2,0V351.9a3.61,3.61,0,1,1-7.22,0l0-77.08a16.09,16.09,0,0,0-32.18,0V473.35A16.07,16.07,0,0,0,59.92,489.42Z"/><polygon class="cls-4" points="276.51 290.11 261.98 315.3 291.02 315.3 291.02 331.33 261.98 331.33 276.51 356.5 262.65 364.51 248.1 339.33 233.57 364.51 219.69 356.5 234.22 331.33 205.14 331.33 205.14 315.3 234.22 315.3 219.69 290.11 233.57 282.13 248.1 307.27 262.65 282.13 276.51 290.11"/><path class="cls-1" d="M342,536.13c10.4-8.5,17.39-20.67,17.39-36,0-29.54-21.23-50-49.84-50h-66V641.5h63c35.51,0,59.75-24.42,59.75-58.26C366.27,562.6,356.79,546,342,536.13Zm-70.76-60.39h33.66c15.18,0,27.9,7.57,27.9,24.29,0,16.5-11.93,25.38-27.11,25.38H271.22Zm32.63,140.15H271.22V550.21H302.8c20.05,0,36.9,10,36.9,32.13C339.7,604.16,323.91,615.89,303.85,615.89Z"/><path class="cls-1" d="M708,497.94v0H658.55V641.5h49v0c30.82-.34,48.55-19.81,48.55-51.1V549C756.1,518.14,738.54,498.5,708,497.94Zm-1.29,117.48H684.57v-92h22.15c14.8,0,20.78,6.66,20.78,20.56v47.84c0,13.91-5.7,23.24-20,23.6h-.81"/></svg>