<svg width="77" height="111" viewBox="0 0 77 111" fill="none" xmlns="http://www.w3.org/2000/svg">
<path d="M7.82267 103.199L0.535156 99.4339L6.00077 51.338L10.9804 49.2734L14.1382 51.338L7.82267 103.199Z" fill="#EC008C"/>
<path d="M13.9932 105.384L9.49609 104.356L15.1342 50.4424L11.1518 48.1668L12.0621 38.7229L20.1405 34.2852L13.9932 105.384Z" fill="#EC008C"/>
<path d="M26.0575 109.154L21.3926 108.358L25.1473 38.2689L22.4165 35.5381V27.9148L29.471 25.1836L26.0575 109.154Z" fill="#0DAEEF"/>
<path d="M25.9609 24.5279L29.0202 22.8378V18.1492L35.7024 15.9314V110.023H45.363V22.8378L49.0662 24.5279V15.2699L36.91 11.1641L25.9609 15.2699V24.5279Z" fill="#0DAEEF"/>
<path d="M55.1866 108.122L50.3665 108.907L46.8203 25.3945L53.7123 28.1943V35.3015L51.1278 37.9937L55.1866 108.122Z" fill="#0DAEEF"/>
<path d="M66.7319 104.555L62.3411 105.133L55.9863 34.5391L64.5362 38.8144L65.345 48.1728L61.0705 50.2522L66.7319 104.555Z" fill="#F18C20"/>
<path d="M62.3535 51.5277L68.4772 103.404L76.2185 99.8224L69.7483 52.2205L64.6646 49.9102L62.3535 51.5277Z" fill="#F18C20"/>
<path d="M37.1434 8.75722L28.2461 11.5446V8.07899L35.7857 5.83088L37.1434 0.773438L38.6425 5.83088L46.6976 8.07899V11.5446L37.1434 8.75722Z" fill="#0DAEEF"/>
</svg>
